<svg id="Capa_1" enable-background="new 0 0 512 512" height="512" viewBox="0 0 512 512" width="512" xmlns="http://www.w3.org/2000/svg"><g><path d="m512 256c0 141.385-114.615 256-256 256s-256-114.615-256-256 114.615-256 256-256 256 114.615 256 256z" fill="#40c1fa"/><path d="m426.498 228.353c0 103.277-83.723 187-187 187s-187-83.723-187-187 83.723-187 187-187 187 83.723 187 187z" fill="#72d1fb"/><path d="m441.683 402.063c10.285 0 15.918 12.063 9.247 19.891-46.956 55.101-116.862 90.046-194.93 90.046-87.091 0-164.025-43.49-210.269-109.937z" fill="#5db33a"/><path d="m213.97 474.077c-33.373-20.574-18.795-72.013 20.41-72.013h207.303c10.355 0 15.872 12.125 9.152 20.002-37.491 43.943-89.586 75.048-148.774 85.801-31.8-5.778-61.552-17.429-88.091-33.79z" fill="#6dc54a"/><path d="m390.063 411.47-43.946 84.219c-9.489 3.569-19.246 6.591-29.232 9.027l-48.656-93.246c-1.916-3.673-.492-8.203 3.18-10.119 3.672-1.918 8.203-.493 10.119 3.18l47.618 91.258 47.619-91.258c1.916-3.673 6.446-5.095 10.119-3.18 3.671 1.916 5.095 6.447 3.179 10.119z" fill="#0a3575"/><path d="m507.833 256c0 .938 4.162 1.874 4.152 2.81-.066 6.169-.351 12.285-.846 18.341-.208 2.54-8.595 5.844-8.876 8.363-1.586 14.194-3.013 25.34-6.823 38.736-.547 1.922 5.707 5.759 5.117 7.663-1.92 6.191-4.068 12.281-6.435 18.261-.693 1.751-7.558 2.927-8.289 4.659-6.928 16.429-12.952 30.031-23 44.5-.723 1.041 2.13 4.594 1.392 5.623-4.52 6.307-9.319 12.4-14.379 18.261h-117.648l-3.573-2.592-39.625-.25-6.331 2.842h-50.471l-5.531-4.051-83.333-1c-2.058 0-8.231 4.74-10.099 4.163-8.16-2.521-14.089-10.124-14.089-19.112v-270.434c0-11.046 8.954-20 20-20h189.951l6.404 8.493h76.25l16.874-8.493h39.597c1.888 2.792 3.722 5.623 5.501 8.491.653 1.053-1.86 10.163-1.222 11.226 10.58 17.627 15.044 27.782 21.167 47.833.476 1.559 8.149 3.923 8.596 5.494 1.706 5.999 3.199 12.089 4.47 18.259.291 1.414-4.738 2.83-4.471 4.253 2.907 15.442 5.57 31.375 5.57 47.661z" fill="#0a4499"/><path d="m219.58 141.043v34.783c0 5.522-4.477 10-10 10h-62.174c-5.523 0-10-4.478-10-10v-34.783c0-5.523 4.477-10 10-10h62.174c5.523 0 10 4.478 10 10zm-10 63.044h-62.174c-5.523 0-10 4.477-10 10v34.783c0 5.523 4.477 10 10 10h62.174c5.523 0 10-4.477 10-10v-34.783c0-5.523-4.477-10-10-10zm100.434 146.087h-62.174c-5.523 0-10 4.477-10 10v34.783c0 5.523 4.477 10 10 10h62.174c5.523 0 10-4.477 10-10v-34.783c0-5.523-4.477-10-10-10zm0-73.044h-62.174c-5.523 0-10 4.477-10 10v34.783c0 5.523 4.477 10 10 10h62.174c5.523 0 10-4.477 10-10v-34.783c0-5.523-4.477-10-10-10zm-100.434 73.044h-62.174c-5.523 0-10 4.477-10 10v34.783c0 5.523 4.477 10 10 10h62.174c5.523 0 10-4.477 10-10v-34.783c0-5.523-4.477-10-10-10zm0-73.044h-62.174c-5.523 0-10 4.477-10 10v34.783c0 5.523 4.477 10 10 10h62.174c5.523 0 10-4.477 10-10v-34.783c0-5.523-4.477-10-10-10zm239.13-91.304h53.552c-1.989-6.992-4.267-13.862-6.821-20.596-.529-1.393-5.975-2.598-6.527-3.98-4.139-10.359-8.158-20.567-13.56-30.207h-26.644c-5.523 0-10 4.477-10 10v34.783c0 5.523 4.477 10 10 10zm-138.696 18.261h-62.174c-5.523 0-10 4.477-10 10v34.783c0 5.523 4.477 10 10 10h62.174c5.523 0 10-4.477 10-10v-34.783c0-5.523-4.477-10-10-10zm196.719 0h-58.023c-5.523 0-10 4.477-10 10v34.783c0 5.523 4.477 10 10 10h62.174c.372 0 .739-.021 1.101-.061.01-.935.015-1.872.015-2.809 0-17.786-1.814-35.149-5.267-51.913zm-68.023 156.087v34.783c0 5.523 4.477 10 10 10h15.516c12.075-16.85 22.156-35.226 29.896-54.783h-45.412c-5.523 0-10 4.477-10 10zm10-83.044c-5.523 0-10 4.477-10 10v34.783c0 5.523 4.477 10 10 10h51.847c5.435-17.528 9.037-35.863 10.583-54.779-.085-.002-.17-.003-.256-.003h-62.174zm-38.261-146.087h-62.174c-5.523 0-10 4.477-10 10v34.783c0 5.522 4.477 10 10 10h62.174c5.523 0 10-4.478 10-10v-34.783c0-5.522-4.477-10-10-10zm0 146.087h-62.174c-5.523 0-10 4.477-10 10v34.783c0 5.523 4.477 10 10 10h62.174c5.523 0 10-4.477 10-10v-34.783c0-5.523-4.477-10-10-10zm0 73.044h-62.174c-5.523 0-10 4.477-10 10v34.783c0 5.523 4.477 10 10 10h62.174c5.523 0 10-4.477 10-10v-34.783c0-5.523-4.477-10-10-10zm-100.435-219.131h-62.174c-5.523 0-10 4.477-10 10v34.783c0 5.522 4.477 10 10 10h62.174c5.523 0 10-4.478 10-10v-34.783c0-5.522-4.477-10-10-10zm100.435 73.044h-62.174c-5.523 0-10 4.477-10 10v34.783c0 5.523 4.477 10 10 10h62.174c5.523 0 10-4.477 10-10v-34.783c0-5.523-4.477-10-10-10z" fill="#0956c6"/><path d="m428.624 112.783-196.426 310.434h-93.053c-2.058 0-4.044-.311-5.913-.889l195.864-309.546h99.528zm45.098 8.492-191.053 301.942h49.528l150.82-238.358c8.067-12.749 7.83-29.038-.54-41.59-1.726-2.588-3.387-5.2-4.853-7.894-.503-.924 2.375-3.411 1.861-4.328-1.85-3.303-3.772-6.561-5.763-9.772z" fill="#2476ed"/><path d="m339.49 253.65c-.774-1.42-1.215-3.049-1.215-4.781v-34.783c0-5.523 4.477-10 10-10h22.576zm-29.476 23.48h-62.174c-5.523 0-10 4.477-10 10v34.783c0 5.523 4.477 10 10 10h42.129l29.782-47.067c-1.033-4.422-5-7.716-9.737-7.716zm38.261-91.304h34.131l33.598-53.099c-1.589-1.063-3.499-1.684-5.555-1.684h-62.174c-5.523 0-10 4.477-10 10v34.783c0 5.523 4.477 10 10 10zm-138.695 164.348h-30.692l-34.391 54.352c.921.28 1.897.431 2.91.431h62.174c5.523 0 10-4.477 10-10v-34.783c-.001-5.523-4.478-10-10.001-10zm100.434 54.783c5.523 0 10-4.477 10-10v-30.76l-25.791 40.76zm76.646-146.087h23.789c5.523 0 10-4.477 10-10v-34.783c0-2.14-.672-4.122-1.816-5.748zm-70.469-125.692-33.313 52.648h27.136c5.523 0 10-4.478 10-10v-34.783c0-3.191-1.495-6.034-3.823-7.865zm22.084 226.996v34.783c0 4.102 2.47 7.626 6.003 9.168l34.137-53.951h-30.14c-5.523 0-10 4.477-10 10zm72.174-83.044h-35.344l-33.209 52.484c1.731 1.436 3.954 2.299 6.379 2.299h41.695l30.09-47.554c-1.202-4.175-5.05-7.229-9.611-7.229zm28.261-63.043v34.783c0 1.58.367 3.074 1.02 4.403l31.122-49.186h-22.142c-5.523 0-10 4.477-10 10zm40.774-83.044h-11.943l-28.804 45.522c.379 5.177 4.699 9.26 9.973 9.26h33.696l13.034-20.599c-4.491-11.838-9.834-23.258-15.956-34.183zm-289.042 200.87h19.138c5.523 0 10-4.477 10-10v-34.783c0-.393-.023-.78-.067-1.16zm119.572-127.826h-38.691l-31.825 50.297c1.79 2.703 4.858 4.485 8.343 4.485h62.174c5.523 0 10-4.477 10-10v-34.783c-.001-5.522-4.478-9.999-10.001-9.999zm-72.173 156.087v34.783c0 4.234 2.631 7.853 6.347 9.312l34.228-54.094h-30.575c-5.523-.001-10 4.476-10 9.999z" fill="#5596fb"/><path d="m214.418 140.656c5.202 5.537 2.075 14.637-5.431 15.808-17.007 2.652-28.819 18.35-26.658 35.426.954 7.537-6.925 13.062-13.686 9.597-15.317-7.851-34.101-2.094-42.389 12.991-3.658 6.658-13.28 6.497-16.713-.281-7.778-15.354-26.357-21.738-41.93-14.406-6.873 3.236-14.562-2.55-13.356-10.05 2.733-16.994-8.546-33.079-25.454-36.3-7.463-1.422-10.283-10.622-4.898-15.981 12.2-12.142 12.529-31.785.744-44.329-5.202-5.537-2.075-14.638 5.431-15.808 17.007-2.652 28.819-18.35 26.657-35.426-.954-7.537 6.925-13.062 13.686-9.596 15.317 7.85 34.101 2.094 42.389-12.991 3.658-6.658 13.28-6.497 16.713.28 7.778 15.354 26.357 21.738 41.93 14.406 6.873-3.237 14.562 2.549 13.356 10.05-2.733 16.994 8.546 33.079 25.454 36.3 7.463 1.422 10.283 10.622 4.898 15.981-12.199 12.142-12.528 31.784-.743 44.329z" fill="#ffde91"/><path d="m175.649 116.893c0 30.992-25.124 56.116-56.116 56.116s-56.116-25.124-56.116-56.116 25.124-56.116 56.116-56.116 56.116 25.124 56.116 56.116z" fill="#ffc14f"/><path d="m153.203 116.893c0 18.595-15.074 33.67-33.67 33.67s-33.67-15.074-33.67-33.67c0-18.595 15.075-33.67 33.67-33.67s33.67 15.075 33.67 33.67z" fill="#ffa90b"/><path d="m228.727 156.227c0-4.143 3.357-7.5 7.5-7.5h34.595c4.143 0 7.5 3.357 7.5 7.5s-3.357 7.5-7.5 7.5h-34.595c-4.143 0-7.5-3.358-7.5-7.5zm-40.499 56.036c-4.143 0-7.5 3.357-7.5 7.5v37.131c0 4.143 3.357 7.5 7.5 7.5s7.5-3.357 7.5-7.5v-37.131c0-4.143-3.358-7.5-7.5-7.5zm28.55-34.673c-2.93-2.928-7.678-2.928-10.607 0-2.929 2.93-2.929 7.678 0 10.607l45.21 45.21c1.465 1.464 3.385 2.196 5.304 2.196s3.839-.732 5.304-2.196c2.929-2.93 2.929-7.678 0-10.607zm75.524 75.525-11.149-11.148c-2.928-2.927-7.677-2.93-10.606.001-2.929 2.929-2.929 7.678.001 10.606l11.149 11.148c1.464 1.464 3.384 2.196 5.303 2.196s3.839-.732 5.304-2.197c2.928-2.928 2.928-7.677-.002-10.606z" fill="#fff5f5"/></g></svg>